<svg width="40" height="40" viewBox="0 0 40 40" fill="none" xmlns="http://www.w3.org/2000/svg">
<path d="M26.6667 11.6667C27.1389 11.6667 27.5347 11.5069 27.8542 11.1875C28.1736 10.8681 28.3333 10.4722 28.3333 10C28.3333 9.52778 28.1736 9.13194 27.8542 8.8125C27.5347 8.49306 27.1389 8.33333 26.6667 8.33333C26.1944 8.33333 25.7986 8.49306 25.4792 8.8125C25.1597 9.13194 25 9.52778 25 10C25 10.4722 25.1597 10.8681 25.4792 11.1875C25.7986 11.5069 26.1944 11.6667 26.6667 11.6667ZM20 11.6667C20.4722 11.6667 20.8681 11.5069 21.1875 11.1875C21.5069 10.8681 21.6667 10.4722 21.6667 10C21.6667 9.52778 21.5069 9.13194 21.1875 8.8125C20.8681 8.49306 20.4722 8.33333 20 8.33333C19.5278 8.33333 19.1319 8.49306 18.8125 8.8125C18.4931 9.13194 18.3333 9.52778 18.3333 10C18.3333 10.4722 18.4931 10.8681 18.8125 11.1875C19.1319 11.5069 19.5278 11.6667 20 11.6667ZM13.3333 11.6667C13.8056 11.6667 14.2014 11.5069 14.5208 11.1875C14.8403 10.8681 15 10.4722 15 10C15 9.52778 14.8403 9.13194 14.5208 8.8125C14.2014 8.49306 13.8056 8.33333 13.3333 8.33333C12.8611 8.33333 12.4653 8.49306 12.1458 8.8125C11.8264 9.13194 11.6667 9.52778 11.6667 10C11.6667 10.4722 11.8264 10.8681 12.1458 11.1875C12.4653 11.5069 12.8611 11.6667 13.3333 11.6667ZM8.33333 16.6667V31.6667H31.6667V16.6667H8.33333ZM16.6667 23.3333H23.3333V20H16.6667V23.3333ZM8.33333 35C7.41667 35 6.63194 34.6736 5.97917 34.0208C5.32639 33.3681 5 32.5833 5 31.6667V8.33333C5 7.41667 5.32639 6.63194 5.97917 5.97917C6.63194 5.32639 7.41667 5 8.33333 5H31.6667C32.5833 5 33.3681 5.32639 34.0208 5.97917C34.6736 6.63194 35 7.41667 35 8.33333V31.6667C35 32.5833 34.6736 33.3681 34.0208 34.0208C33.3681 34.6736 32.5833 35 31.6667 35H8.33333Z" fill="white"/>
</svg>
