<svg width="1080" height="1080" viewBox="0 0 1080 1080" fill="none" xmlns="http://www.w3.org/2000/svg">
<rect width="1080" height="1080" fill="#FFC300"/>
<path d="M40.5909 546.636V587H21.2273V517.182H39.6818V529.5H40.5C42.0455 525.439 44.6364 522.227 48.2727 519.864C51.9091 517.47 56.3182 516.273 61.5 516.273C66.3485 516.273 70.5758 517.333 74.1818 519.455C77.7879 521.576 80.5909 524.606 82.5909 528.545C84.5909 532.455 85.5909 537.121 85.5909 542.545V587H66.2273V546C66.2576 541.727 65.1667 538.394 62.9545 536C60.7424 533.576 57.697 532.364 53.8182 532.364C51.2121 532.364 48.9091 532.924 46.9091 534.045C44.9394 535.167 43.3939 536.803 42.2727 538.955C41.1818 541.076 40.6212 543.636 40.5909 546.636ZM132.148 588.364C125.087 588.364 118.981 586.864 113.83 583.864C108.708 580.833 104.754 576.621 101.966 571.227C99.178 565.803 97.7841 559.515 97.7841 552.364C97.7841 545.152 99.178 538.848 101.966 533.455C104.754 528.03 108.708 523.818 113.83 520.818C118.981 517.788 125.087 516.273 132.148 516.273C139.208 516.273 145.299 517.788 150.42 520.818C155.572 523.818 159.542 528.03 162.33 533.455C165.117 538.848 166.511 545.152 166.511 552.364C166.511 559.515 165.117 565.803 162.33 571.227C159.542 576.621 155.572 580.833 150.42 583.864C145.299 586.864 139.208 588.364 132.148 588.364ZM132.239 573.364C135.451 573.364 138.133 572.455 140.284 570.636C142.436 568.788 144.057 566.273 145.148 563.091C146.269 559.909 146.83 556.288 146.83 552.227C146.83 548.167 146.269 544.545 145.148 541.364C144.057 538.182 142.436 535.667 140.284 533.818C138.133 531.97 135.451 531.045 132.239 531.045C128.996 531.045 126.269 531.97 124.057 533.818C121.875 535.667 120.223 538.182 119.102 541.364C118.011 544.545 117.466 548.167 117.466 552.227C117.466 556.288 118.011 559.909 119.102 563.091C120.223 566.273 121.875 568.788 124.057 570.636C126.269 572.455 128.996 573.364 132.239 573.364ZM215.989 517.182V531.727H173.943V517.182H215.989ZM183.489 500.455H202.852V565.545C202.852 567.333 203.125 568.727 203.67 569.727C204.216 570.697 204.973 571.379 205.943 571.773C206.943 572.167 208.095 572.364 209.398 572.364C210.307 572.364 211.216 572.288 212.125 572.136C213.034 571.955 213.731 571.818 214.216 571.727L217.261 586.136C216.292 586.439 214.928 586.788 213.17 587.182C211.413 587.606 209.277 587.864 206.761 587.955C202.095 588.136 198.004 587.515 194.489 586.091C191.004 584.667 188.292 582.455 186.352 579.455C184.413 576.455 183.458 572.667 183.489 568.091V500.455ZM249.216 546.636V587H229.852V493.909H248.67V529.5H249.489C251.064 525.379 253.61 522.152 257.125 519.818C260.64 517.455 265.049 516.273 270.352 516.273C275.201 516.273 279.428 517.333 283.034 519.455C286.67 521.545 289.489 524.561 291.489 528.5C293.519 532.409 294.519 537.091 294.489 542.545V587H275.125V546C275.155 541.697 274.064 538.348 271.852 535.955C269.67 533.561 266.61 532.364 262.67 532.364C260.034 532.364 257.701 532.924 255.67 534.045C253.67 535.167 252.095 536.803 250.943 538.955C249.822 541.076 249.246 543.636 249.216 546.636ZM309.477 587V517.182H328.841V587H309.477ZM319.205 508.182C316.326 508.182 313.856 507.227 311.795 505.318C309.765 503.379 308.75 501.061 308.75 498.364C308.75 495.697 309.765 493.409 311.795 491.5C313.856 489.561 316.326 488.591 319.205 488.591C322.083 488.591 324.538 489.561 326.568 491.5C328.629 493.409 329.659 495.697 329.659 498.364C329.659 501.061 328.629 503.379 326.568 505.318C324.538 507.227 322.083 508.182 319.205 508.182ZM363.466 546.636V587H344.102V517.182H362.557V529.5H363.375C364.92 525.439 367.511 522.227 371.148 519.864C374.784 517.47 379.193 516.273 384.375 516.273C389.223 516.273 393.451 517.333 397.057 519.455C400.663 521.576 403.466 524.606 405.466 528.545C407.466 532.455 408.466 537.121 408.466 542.545V587H389.102V546C389.133 541.727 388.042 538.394 385.83 536C383.617 533.576 380.572 532.364 376.693 532.364C374.087 532.364 371.784 532.924 369.784 534.045C367.814 535.167 366.269 536.803 365.148 538.955C364.057 541.076 363.496 543.636 363.466 546.636ZM454.932 614.636C448.659 614.636 443.28 613.773 438.795 612.045C434.341 610.348 430.795 608.03 428.159 605.091C425.523 602.152 423.811 598.848 423.023 595.182L440.932 592.773C441.477 594.167 442.341 595.47 443.523 596.682C444.705 597.894 446.265 598.864 448.205 599.591C450.174 600.348 452.568 600.727 455.386 600.727C459.598 600.727 463.068 599.697 465.795 597.636C468.553 595.606 469.932 592.197 469.932 587.409V574.636H469.114C468.265 576.576 466.992 578.409 465.295 580.136C463.598 581.864 461.417 583.273 458.75 584.364C456.083 585.455 452.902 586 449.205 586C443.962 586 439.189 584.788 434.886 582.364C430.614 579.909 427.205 576.167 424.659 571.136C422.144 566.076 420.886 559.682 420.886 551.955C420.886 544.045 422.174 537.439 424.75 532.136C427.326 526.833 430.75 522.864 435.023 520.227C439.326 517.591 444.038 516.273 449.159 516.273C453.068 516.273 456.341 516.939 458.977 518.273C461.614 519.576 463.735 521.212 465.341 523.182C466.977 525.121 468.235 527.03 469.114 528.909H469.841V517.182H489.068V587.682C489.068 593.621 487.614 598.591 484.705 602.591C481.795 606.591 477.765 609.591 472.614 611.591C467.492 613.621 461.598 614.636 454.932 614.636ZM455.341 571.455C458.462 571.455 461.098 570.682 463.25 569.136C465.432 567.561 467.098 565.318 468.25 562.409C469.432 559.47 470.023 555.955 470.023 551.864C470.023 547.773 469.447 544.227 468.295 541.227C467.144 538.197 465.477 535.848 463.295 534.182C461.114 532.515 458.462 531.682 455.341 531.682C452.159 531.682 449.477 532.545 447.295 534.273C445.114 535.97 443.462 538.333 442.341 541.364C441.22 544.394 440.659 547.894 440.659 551.864C440.659 555.894 441.22 559.379 442.341 562.318C443.492 565.227 445.144 567.485 447.295 569.091C449.477 570.667 452.159 571.455 455.341 571.455ZM541.364 517.182V531.727H499.318V517.182H541.364ZM508.864 500.455H528.227V565.545C528.227 567.333 528.5 568.727 529.045 569.727C529.591 570.697 530.348 571.379 531.318 571.773C532.318 572.167 533.47 572.364 534.773 572.364C535.682 572.364 536.591 572.288 537.5 572.136C538.409 571.955 539.106 571.818 539.591 571.727L542.636 586.136C541.667 586.439 540.303 586.788 538.545 587.182C536.788 587.606 534.652 587.864 532.136 587.955C527.47 588.136 523.379 587.515 519.864 586.091C516.379 584.667 513.667 582.455 511.727 579.455C509.788 576.455 508.833 572.667 508.864 568.091V500.455ZM584.523 588.364C577.462 588.364 571.356 586.864 566.205 583.864C561.083 580.833 557.129 576.621 554.341 571.227C551.553 565.803 550.159 559.515 550.159 552.364C550.159 545.152 551.553 538.848 554.341 533.455C557.129 528.03 561.083 523.818 566.205 520.818C571.356 517.788 577.462 516.273 584.523 516.273C591.583 516.273 597.674 517.788 602.795 520.818C607.947 523.818 611.917 528.03 614.705 533.455C617.492 538.848 618.886 545.152 618.886 552.364C618.886 559.515 617.492 565.803 614.705 571.227C611.917 576.621 607.947 580.833 602.795 583.864C597.674 586.864 591.583 588.364 584.523 588.364ZM584.614 573.364C587.826 573.364 590.508 572.455 592.659 570.636C594.811 568.788 596.432 566.273 597.523 563.091C598.644 559.909 599.205 556.288 599.205 552.227C599.205 548.167 598.644 544.545 597.523 541.364C596.432 538.182 594.811 535.667 592.659 533.818C590.508 531.97 587.826 531.045 584.614 531.045C581.371 531.045 578.644 531.97 576.432 533.818C574.25 535.667 572.598 538.182 571.477 541.364C570.386 544.545 569.841 548.167 569.841 552.227C569.841 556.288 570.386 559.909 571.477 563.091C572.598 566.273 574.25 568.788 576.432 570.636C578.644 572.455 581.371 573.364 584.614 573.364ZM663.045 588.364C655.864 588.364 649.682 586.909 644.5 584C639.348 581.061 635.379 576.909 632.591 571.545C629.803 566.152 628.409 559.773 628.409 552.409C628.409 545.227 629.803 538.924 632.591 533.5C635.379 528.076 639.303 523.848 644.364 520.818C649.455 517.788 655.424 516.273 662.273 516.273C666.879 516.273 671.167 517.015 675.136 518.5C679.136 519.955 682.621 522.152 685.591 525.091C688.591 528.03 690.924 531.727 692.591 536.182C694.258 540.606 695.091 545.788 695.091 551.727V557.045H636.136V545.045H676.864C676.864 542.258 676.258 539.788 675.045 537.636C673.833 535.485 672.152 533.803 670 532.591C667.879 531.348 665.409 530.727 662.591 530.727C659.652 530.727 657.045 531.409 654.773 532.773C652.53 534.106 650.773 535.909 649.5 538.182C648.227 540.424 647.576 542.924 647.545 545.682V557.091C647.545 560.545 648.182 563.53 649.455 566.045C650.758 568.561 652.591 570.5 654.955 571.864C657.318 573.227 660.121 573.909 663.364 573.909C665.515 573.909 667.485 573.606 669.273 573C671.061 572.394 672.591 571.485 673.864 570.273C675.136 569.061 676.106 567.576 676.773 565.818L694.682 567C693.773 571.303 691.909 575.061 689.091 578.273C686.303 581.455 682.697 583.939 678.273 585.727C673.879 587.485 668.803 588.364 663.045 588.364ZM727.386 588.318C722.932 588.318 718.962 587.545 715.477 586C711.992 584.424 709.235 582.106 707.205 579.045C705.205 575.955 704.205 572.106 704.205 567.5C704.205 563.621 704.917 560.364 706.341 557.727C707.765 555.091 709.705 552.97 712.159 551.364C714.614 549.758 717.402 548.545 720.523 547.727C723.674 546.909 726.977 546.333 730.432 546C734.492 545.576 737.765 545.182 740.25 544.818C742.735 544.424 744.538 543.848 745.659 543.091C746.78 542.333 747.341 541.212 747.341 539.727V539.455C747.341 536.576 746.432 534.348 744.614 532.773C742.826 531.197 740.28 530.409 736.977 530.409C733.492 530.409 730.72 531.182 728.659 532.727C726.598 534.242 725.235 536.152 724.568 538.455L706.659 537C707.568 532.758 709.356 529.091 712.023 526C714.689 522.879 718.129 520.485 722.341 518.818C726.583 517.121 731.492 516.273 737.068 516.273C740.947 516.273 744.659 516.727 748.205 517.636C751.78 518.545 754.947 519.955 757.705 521.864C760.492 523.773 762.689 526.227 764.295 529.227C765.902 532.197 766.705 535.758 766.705 539.909V587H748.341V577.318H747.795C746.674 579.5 745.174 581.424 743.295 583.091C741.417 584.727 739.159 586.015 736.523 586.955C733.886 587.864 730.841 588.318 727.386 588.318ZM732.932 574.955C735.78 574.955 738.295 574.394 740.477 573.273C742.659 572.121 744.371 570.576 745.614 568.636C746.856 566.697 747.477 564.5 747.477 562.045V554.636C746.871 555.03 746.038 555.394 744.977 555.727C743.947 556.03 742.78 556.318 741.477 556.591C740.174 556.833 738.871 557.061 737.568 557.273C736.265 557.455 735.083 557.621 734.023 557.773C731.75 558.106 729.765 558.636 728.068 559.364C726.371 560.091 725.053 561.076 724.114 562.318C723.174 563.53 722.705 565.045 722.705 566.864C722.705 569.5 723.659 571.515 725.568 572.909C727.508 574.273 729.962 574.955 732.932 574.955ZM818.614 517.182V531.727H776.568V517.182H818.614ZM786.114 500.455H805.477V565.545C805.477 567.333 805.75 568.727 806.295 569.727C806.841 570.697 807.598 571.379 808.568 571.773C809.568 572.167 810.72 572.364 812.023 572.364C812.932 572.364 813.841 572.288 814.75 572.136C815.659 571.955 816.356 571.818 816.841 571.727L819.886 586.136C818.917 586.439 817.553 586.788 815.795 587.182C814.038 587.606 811.902 587.864 809.386 587.955C804.72 588.136 800.629 587.515 797.114 586.091C793.629 584.667 790.917 582.455 788.977 579.455C787.038 576.455 786.083 572.667 786.114 568.091V500.455ZM842.295 588.182C839.295 588.182 836.72 587.121 834.568 585C832.447 582.848 831.386 580.273 831.386 577.273C831.386 574.303 832.447 571.758 834.568 569.636C836.72 567.515 839.295 566.455 842.295 566.455C845.205 566.455 847.75 567.515 849.932 569.636C852.114 571.758 853.205 574.303 853.205 577.273C853.205 579.273 852.689 581.106 851.659 582.773C850.659 584.409 849.341 585.727 847.705 586.727C846.068 587.697 844.265 588.182 842.295 588.182ZM888.216 546.636V587H868.852V517.182H887.307V529.5H888.125C889.67 525.439 892.261 522.227 895.898 519.864C899.534 517.47 903.943 516.273 909.125 516.273C913.973 516.273 918.201 517.333 921.807 519.455C925.413 521.576 928.216 524.606 930.216 528.545C932.216 532.455 933.216 537.121 933.216 542.545V587H913.852V546C913.883 541.727 912.792 538.394 910.58 536C908.367 533.576 905.322 532.364 901.443 532.364C898.837 532.364 896.534 532.924 894.534 534.045C892.564 535.167 891.019 536.803 889.898 538.955C888.807 541.076 888.246 543.636 888.216 546.636ZM980.045 588.364C972.864 588.364 966.682 586.909 961.5 584C956.348 581.061 952.379 576.909 949.591 571.545C946.803 566.152 945.409 559.773 945.409 552.409C945.409 545.227 946.803 538.924 949.591 533.5C952.379 528.076 956.303 523.848 961.364 520.818C966.455 517.788 972.424 516.273 979.273 516.273C983.879 516.273 988.167 517.015 992.136 518.5C996.136 519.955 999.621 522.152 1002.59 525.091C1005.59 528.03 1007.92 531.727 1009.59 536.182C1011.26 540.606 1012.09 545.788 1012.09 551.727V557.045H953.136V545.045H993.864C993.864 542.258 993.258 539.788 992.045 537.636C990.833 535.485 989.152 533.803 987 532.591C984.879 531.348 982.409 530.727 979.591 530.727C976.652 530.727 974.045 531.409 971.773 532.773C969.53 534.106 967.773 535.909 966.5 538.182C965.227 540.424 964.576 542.924 964.545 545.682V557.091C964.545 560.545 965.182 563.53 966.455 566.045C967.758 568.561 969.591 570.5 971.955 571.864C974.318 573.227 977.121 573.909 980.364 573.909C982.515 573.909 984.485 573.606 986.273 573C988.061 572.394 989.591 571.485 990.864 570.273C992.136 569.061 993.106 567.576 993.773 565.818L1011.68 567C1010.77 571.303 1008.91 575.061 1006.09 578.273C1003.3 581.455 999.697 583.939 995.273 585.727C990.879 587.485 985.803 588.364 980.045 588.364ZM1061.61 517.182V531.727H1019.57V517.182H1061.61ZM1029.11 500.455H1048.48V565.545C1048.48 567.333 1048.75 568.727 1049.3 569.727C1049.84 570.697 1050.6 571.379 1051.57 571.773C1052.57 572.167 1053.72 572.364 1055.02 572.364C1055.93 572.364 1056.84 572.288 1057.75 572.136C1058.66 571.955 1059.36 571.818 1059.84 571.727L1062.89 586.136C1061.92 586.439 1060.55 586.788 1058.8 587.182C1057.04 587.606 1054.9 587.864 1052.39 587.955C1047.72 588.136 1043.63 587.515 1040.11 586.091C1036.63 584.667 1033.92 582.455 1031.98 579.455C1030.04 576.455 1029.08 572.667 1029.11 568.091V500.455Z" fill="white"/>
</svg>
